<svg xmlns="http://www.w3.org/2000/svg" xmlns:xlink="http://www.w3.org/1999/xlink" viewBox="0 0 120.5 204.73"><defs><style>.cls-1{isolation:isolate;}.cls-2{fill:#1b9cd7;}.cls-3{fill:none;}.cls-4{mix-blend-mode:multiply;fill:url(#linear-gradient);}.cls-5{fill:#030303;}.cls-6{font-size:24.65px;fill:#010101;font-family:Bauhaus93, "Bauhaus 93";}</style><linearGradient id="linear-gradient" x1="177.41" y1="145.92" x2="148.81" y2="121.33" gradientUnits="userSpaceOnUse"><stop offset="0" stop-color="#549bd4"/><stop offset="0.24" stop-color="#549bd4" stop-opacity="0.7"/><stop offset="0.51" stop-color="#549bd4" stop-opacity="0.4"/><stop offset="0.73" stop-color="#549bd4" stop-opacity="0.18"/><stop offset="0.9" stop-color="#549bd4" stop-opacity="0.05"/><stop offset="1" stop-color="#549bd4" stop-opacity="0"/></linearGradient></defs><title>Untitled-2</title><g class="cls-1"><g id="Layer_1" data-name="Layer 1"><path class="cls-2" d="M103.47,40.51c3.12,12.36,8.87,28.83,6.24,44.69A43.62,43.62,0,0,1,108,92.11c-2.39,7-6.82,13.69-14.22,19.75A33.6,33.6,0,0,0,81.43,138a32,32,0,0,0,.46,5.12c2.26,8.47,7.88,8.59,13.93,3.39,5.1-4.38,10.48,1.54,3.51,9.47-2.67,3,.85,6.25,4.61,5.32,4.28-1.39,7.62-5.31,8.21-12,.66-7.45,3.09-10,5.66-10.3,3.75-.4,5.33,2.36,6.83,10.3,1.85,9.84,19.7,8.58,18.16-13.52-.28-4-.75-9.93-4.62-15.11-10.87-14.53-6.49-23.85,2.58-19.73a21.13,21.13,0,0,1,6.45,4.46c10.42,10.48,15.6,26.21,15.6,42.64,0,34.9-26.67,63.2-59.58,63.2S43.66,182.93,43.66,148a64.72,64.72,0,0,1,20.8-48c.76-.68,1.51-1.33,2.26-2,21-17.87,36.74-21.29,36.74-57.63" transform="translate(-43.08 -40.46)"/><ellipse class="cls-3" cx="72.47" cy="86.89" rx="5.74" ry="6.09"/><ellipse class="cls-2" cx="73.06" cy="85.29" rx="5.74" ry="6.09"/><path class="cls-4" d="M162.79,146.49c-.26-13.31-3.94-26.06-11.08-35.82C158.65,120,162.55,131.5,162.79,146.49Z" transform="translate(-43.08 -40.46)"/><path class="cls-5" d="M103.46,40.61A52.41,52.41,0,0,1,105,55.15a71.31,71.31,0,0,1-7.71,30.31,53.79,53.79,0,0,1-10.84,14.72c-.83.8-1.68,1.57-2.54,2.35-4.23,3.85-8.6,7.83-12.91,15.58-9,16.14-9.93,33.15-2.64,46.69,5.27,9.77,14.26,15.85,23.48,15.85h0a22.75,22.75,0,0,0,13.65-4.7c2.5-1.84,5.29-3,7.26-3a2.75,2.75,0,0,1,2.63,1.31c.82,1.51.23,4.09-1.74,7.68-1.37,2.49-1.77,4.42-1.15,5.57s2.07,1.34,3.2,1.34c3.45,0,8.65-2.06,12.94-5.13,8.89-6.37,12.72-16,15.52-23,2.1-5.24,6.59-12.51,9.57-12.51a1.75,1.75,0,0,1,1.32.61c1,1,1.4,3.36,1.34,7.09-.09,6.3.57,6.51.6,6.52.33,0,1.35-1.81,2.69-6.68l.05-.23,0-.05a51.93,51.93,0,0,0,1.34-12.58c-.29-18.78-13.86-37.38-13.86-37.38,10,9.32,15.89,24.73,15.89,42.64a66.51,66.51,0,0,1-14.51,41.42,59.64,59.64,0,0,1-34.07,21,56.39,56.39,0,0,1-11.24,1.13h0a57.5,57.5,0,0,1-25.37-5.94,61.25,61.25,0,0,1-25-23.1,66.1,66.1,0,0,1-9.57-34.46c0-.68,0-1.37,0-2.05a65.43,65.43,0,0,1,4.48-22.2C55.33,105.2,67.26,96.67,76,90.44c5.83-4.17,21.32-15.23,25.24-31a65.63,65.63,0,0,0,1.46-8.59" transform="translate(-43.08 -40.46)"/><text class="cls-6" transform="translate(0 198.56)">APRO<tspan class="cls-2" x="61.76" y="0">FLOW</tspan></text></g></g></svg>